# xmcd
#
# Track frame offsets: 
#        150
#        18910
#        35693
#        55008
#        73565
#        88404
#        108319
#        130108
#        147384
#        168550
#        195796
#        215922
#
# Disc length: 3169 seconds
#
# Revision: 3
# Processed by: cddbd v1.5.2PL0 Copyright (c) Steve Scherf et al.
# Submitted via: ExactAudioCopy v1.3
#
DISCID=ac0c5f0c
DTITLE=AKB48 - ?????????????! A [Disc 2]
DYEAR=1900
DGENRE=blues
TTITLE0=シアターの女神
TTITLE1=????????? (?????4)
TTITLE2=????????? (Team 8)
TTITLE3=?? (????)
TTITLE4=?????????100??
TTITLE5=??????? (????????)
TTITLE6=?????? (????)
TTITLE7=???????? (???)
TTITLE8=Birth
TTITLE9=7???????? (????)
TTITLE10=Oh! Baby! (?????A)
TTITLE11=?????????????!
EXTD=
EXTT0=
EXTT1=
EXTT2=
EXTT3=
EXTT4=
EXTT5=
EXTT6=
EXTT7=
EXTT8=
EXTT9=
EXTT10=
EXTT11=
PLAYORDER=
